<?xml version="1.0" encoding="utf-8"?>
<svg version="1.1" xmlns:xlink="http://www.w3.org/1999/xlink" width="14px" height="12px" xmlns="http://www.w3.org/2000/svg">
  <g transform="matrix(1 0 0 1 -1571 -629 )">
    <path d="M 13.7470967741935 1.65656565656566  C 13.9156989247312 1.84511784511784  14 2.07407407407407  14 2.34343434343434  C 14 2.61279461279461  13.9156989247312 2.84175084175084  13.7470967741935 3.03030303030303  L 7.20774193548387 10.3434343434343  L 5.97935483870968 11.7171717171717  C 5.81075268817204 11.9057239057239  5.60602150537635 12  5.36516129032258 12  C 5.12430107526882 12  4.91956989247312 11.9057239057239  4.75096774193548 11.7171717171717  L 3.52258064516129 10.3434343434343  L 0.252903225806452 6.68686868686869  C 0.0843010752688173 6.4983164983165  0 6.26936026936027  0 6  C 0 5.73063973063973  0.0843010752688173 5.5016835016835  0.252903225806452 5.31313131313131  L 1.48129032258065 3.93939393939394  C 1.64989247311828 3.75084175084175  1.85462365591398 3.65656565656566  2.09548387096774 3.65656565656566  C 2.33634408602151 3.65656565656566  2.5410752688172 3.75084175084175  2.70967741935484 3.93939393939394  L 5.36516129032258 6.91919191919192  L 11.2903225806452 0.282828282828283  C 11.4589247311828 0.0942760942760938  11.6636559139785 0  11.9045161290323 0  C 12.145376344086 0  12.3501075268817 0.0942760942760938  12.5187096774194 0.282828282828283  L 13.7470967741935 1.65656565656566  Z " fill-rule="nonzero" fill="#ffffff" stroke="none" transform="matrix(1 0 0 1 1571 629 )" />
  </g>
</svg>