<?xml version="1.0" encoding="utf-8"?>
<svg version="1.1" xmlns:xlink="http://www.w3.org/1999/xlink" width="16px" height="16px" xmlns="http://www.w3.org/2000/svg">
  <g transform="matrix(1 0 0 1 -1872 -267 )">
    <path d="M 1880 269  C 1883.36 269  1886 271.64  1886 275  C 1886 278.36  1883.36 281  1880 281  C 1876.64 281  1874 278.36  1874 275  C 1874 271.64  1876.64 269  1880 269  Z " fill-rule="nonzero" fill="#ffffff" stroke="none" />
    <path d="M 1880 268.5  C 1883.64 268.5  1886.5 271.36  1886.5 275  C 1886.5 278.64  1883.64 281.5  1880 281.5  C 1876.36 281.5  1873.5 278.64  1873.5 275  C 1873.5 271.36  1876.36 268.5  1880 268.5  Z " stroke-width="3" stroke="#333333" fill="none" />
  </g>
</svg>