<?xml version="1.0" encoding="utf-8"?>
<svg version="1.1" xmlns:xlink="http://www.w3.org/1999/xlink" width="18px" height="19px" xmlns="http://www.w3.org/2000/svg">
  <g>
    <path d="M 6.43039772727273 7.236328125  C 6.50710227272727 7.310546875  6.54545454545455 7.40538194444444  6.54545454545455 7.52083333333333  L 6.54545454545455 14.6458333333333  C 6.54545454545455 14.7612847222222  6.50710227272727 14.8561197916667  6.43039772727273 14.9303385416667  C 6.35369318181818 15.0045572916667  6.25568181818182 15.0416666666667  6.13636363636364 15.0416666666667  L 5.31818181818182 15.0416666666667  C 5.19886363636364 15.0416666666667  5.10085227272727 15.0045572916667  5.02414772727273 14.9303385416667  C 4.94744318181818 14.8561197916667  4.90909090909091 14.7612847222222  4.90909090909091 14.6458333333333  L 4.90909090909091 7.52083333333333  C 4.90909090909091 7.40538194444444  4.94744318181818 7.310546875  5.02414772727273 7.236328125  C 5.10085227272727 7.162109375  5.19886363636364 7.125  5.31818181818182 7.125  L 6.13636363636364 7.125  C 6.25568181818182 7.125  6.35369318181818 7.162109375  6.43039772727273 7.236328125  Z M 9.703125 7.236328125  C 9.77982954545454 7.310546875  9.81818181818182 7.40538194444444  9.81818181818182 7.52083333333333  L 9.81818181818182 14.6458333333333  C 9.81818181818182 14.7612847222222  9.77982954545454 14.8561197916667  9.703125 14.9303385416667  C 9.62642045454546 15.0045572916667  9.52840909090909 15.0416666666667  9.40909090909091 15.0416666666667  L 8.59090909090909 15.0416666666667  C 8.47159090909091 15.0416666666667  8.37357954545454 15.0045572916667  8.296875 14.9303385416667  C 8.22017045454546 14.8561197916667  8.18181818181818 14.7612847222222  8.18181818181818 14.6458333333333  L 8.18181818181818 7.52083333333333  C 8.18181818181818 7.40538194444444  8.22017045454546 7.310546875  8.296875 7.236328125  C 8.37357954545454 7.162109375  8.47159090909091 7.125  8.59090909090909 7.125  L 9.40909090909091 7.125  C 9.52840909090909 7.125  9.62642045454546 7.162109375  9.703125 7.236328125  Z M 12.9758522727273 7.236328125  C 13.0525568181818 7.310546875  13.0909090909091 7.40538194444444  13.0909090909091 7.52083333333333  L 13.0909090909091 14.6458333333333  C 13.0909090909091 14.7612847222222  13.0525568181818 14.8561197916667  12.9758522727273 14.9303385416667  C 12.8991477272727 15.0045572916667  12.8011363636364 15.0416666666667  12.6818181818182 15.0416666666667  L 11.8636363636364 15.0416666666667  C 11.7443181818182 15.0416666666667  11.6463068181818 15.0045572916667  11.5696022727273 14.9303385416667  C 11.4928977272727 14.8561197916667  11.4545454545455 14.7612847222222  11.4545454545455 14.6458333333333  L 11.4545454545455 7.52083333333333  C 11.4545454545455 7.40538194444444  11.4928977272727 7.310546875  11.5696022727273 7.236328125  C 11.6463068181818 7.162109375  11.7443181818182 7.125  11.8636363636364 7.125  L 12.6818181818182 7.125  C 12.8011363636364 7.125  12.8991477272727 7.162109375  12.9758522727273 7.236328125  Z M 14.6377840909091 16.9775390625  C 14.6974431818182 16.8249782986111  14.7272727272727 16.6579861111111  14.7272727272727 16.4765625  L 14.7272727272727 5  L 3.27272727272727 5  L 3.27272727272727 16.4765625  C 3.27272727272727 16.6579861111111  3.30255681818182 16.8249782986111  3.36221590909091 16.9775390625  C 3.421875 17.1300998263889  3.48366477272727 17.2414279513889  3.54758522727273 17.3115234375  C 3.61150568181818 17.3816189236111  3.65625 17.4166666666667  3.68181818181818 17.4166666666667  L 14.3181818181818 17.4166666666667  C 14.34375 17.4166666666667  14.3884943181818 17.3816189236111  14.4524147727273 17.3115234375  C 14.5163352272727 17.2414279513889  14.578125 17.1300998263889  14.6377840909091 16.9775390625  Z M 6.76278409090909 1.71940104166667  L 6.13636363636364 3.16666666666667  L 11.8636363636364 3.16666666666667  L 11.25 1.71940104166667  C 11.1903409090909 1.64518229166667  11.1178977272727 1.59982638888889  11.0326704545455 1.58333333333333  L 6.98011363636364 1.58333333333333  C 6.89488636363636 1.59982638888889  6.82244318181818 1.64518229166667  6.76278409090909 1.71940104166667  Z M 17.8849431818182 3.27799479166667  C 17.9616477272727 3.35221354166667  18 3.44704861111111  18 3.5625  L 18 4.35416666666667  C 18 4.46961805555555  17.9616477272727 4.564453125  17.8849431818182 4.638671875  C 17.8082386363636 4.712890625  17.7102272727273 4.75  17.5909090909091 4.75  L 16.3636363636364 4.75  L 16.3636363636364 16.4765625  C 16.3636363636364 17.1610243055556  16.1633522727273 17.7527126736111  15.7627840909091 18.2516276041667  C 15.3622159090909 18.7505425347222  14.8806818181818 19  14.3181818181818 19  L 3.68181818181818 19  C 3.11931818181818 19  2.63778409090909 18.7587890625  2.23721590909091 18.2763671875  C 1.83664772727273 17.7939453125  1.63636363636364 17.2105034722222  1.63636363636364 16.5260416666667  L 1.63636363636364 4.75  L 0.409090909090909 4.75  C 0.289772727272727 4.75  0.191761363636364 4.712890625  0.115056818181818 4.638671875  C 0.0383522727272727 4.564453125  0 4.46961805555555  0 4.35416666666667  L 0 3.5625  C 0 3.44704861111111  0.0383522727272727 3.35221354166667  0.115056818181818 3.27799479166667  C 0.191761363636364 3.20377604166667  0.289772727272727 3.16666666666667  0.409090909090909 3.16666666666667  L 4.359375 3.16666666666667  L 5.25426136363636 1.10091145833333  C 5.38210227272727 0.795789930555554  5.61221590909091 0.536024305555554  5.94460227272727 0.321614583333334  C 6.27698863636364 0.10720486111111  6.61363636363636 0  6.95454545454545 0  L 11.0454545454545 0  C 11.3863636363636 0  11.7230113636364 0.10720486111111  12.0553977272727 0.321614583333334  C 12.3877840909091 0.536024305555554  12.6178977272727 0.795789930555554  12.7457386363636 1.10091145833333  L 13.640625 3.16666666666667  L 17.5909090909091 3.16666666666667  C 17.7102272727273 3.16666666666667  17.8082386363636 3.20377604166667  17.8849431818182 3.27799479166667  Z " fill-rule="nonzero" fill="#ffffff" stroke="none" />
  </g>
</svg>