<?xml version="1.0" encoding="utf-8"?>
<svg version="1.1" xmlns:xlink="http://www.w3.org/1999/xlink" width="8px" height="9px" xmlns="http://www.w3.org/2000/svg">
  <g transform="matrix(1 0 0 1 -3 -3 )">
    <path d="M 2.85795454545455 3.427734375  C 2.89204545454545 3.462890625  2.90909090909091 3.5078125  2.90909090909091 3.5625  L 2.90909090909091 6.9375  C 2.90909090909091 6.9921875  2.89204545454545 7.037109375  2.85795454545455 7.072265625  C 2.82386363636364 7.107421875  2.78030303030303 7.125  2.72727272727273 7.125  L 2.36363636363636 7.125  C 2.31060606060606 7.125  2.26704545454546 7.107421875  2.23295454545455 7.072265625  C 2.19886363636364 7.037109375  2.18181818181818 6.9921875  2.18181818181818 6.9375  L 2.18181818181818 3.5625  C 2.18181818181818 3.5078125  2.19886363636364 3.462890625  2.23295454545455 3.427734375  C 2.26704545454546 3.392578125  2.31060606060606 3.375  2.36363636363636 3.375  L 2.72727272727273 3.375  C 2.78030303030303 3.375  2.82386363636364 3.392578125  2.85795454545455 3.427734375  Z M 4.3125 3.427734375  C 4.34659090909091 3.462890625  4.36363636363636 3.5078125  4.36363636363636 3.5625  L 4.36363636363636 6.9375  C 4.36363636363636 6.9921875  4.34659090909091 7.037109375  4.3125 7.072265625  C 4.27840909090909 7.107421875  4.23484848484849 7.125  4.18181818181818 7.125  L 3.81818181818182 7.125  C 3.76515151515152 7.125  3.72159090909091 7.107421875  3.6875 7.072265625  C 3.65340909090909 7.037109375  3.63636363636364 6.9921875  3.63636363636364 6.9375  L 3.63636363636364 3.5625  C 3.63636363636364 3.5078125  3.65340909090909 3.462890625  3.6875 3.427734375  C 3.72159090909091 3.392578125  3.76515151515152 3.375  3.81818181818182 3.375  L 4.18181818181818 3.375  C 4.23484848484849 3.375  4.27840909090909 3.392578125  4.3125 3.427734375  Z M 5.76704545454545 3.427734375  C 5.80113636363636 3.462890625  5.81818181818182 3.5078125  5.81818181818182 3.5625  L 5.81818181818182 6.9375  C 5.81818181818182 6.9921875  5.80113636363636 7.037109375  5.76704545454545 7.072265625  C 5.73295454545455 7.107421875  5.68939393939394 7.125  5.63636363636364 7.125  L 5.27272727272727 7.125  C 5.21969696969697 7.125  5.17613636363636 7.107421875  5.14204545454545 7.072265625  C 5.10795454545455 7.037109375  5.09090909090909 6.9921875  5.09090909090909 6.9375  L 5.09090909090909 3.5625  C 5.09090909090909 3.5078125  5.10795454545455 3.462890625  5.14204545454545 3.427734375  C 5.17613636363636 3.392578125  5.21969696969697 3.375  5.27272727272727 3.375  L 5.63636363636364 3.375  C 5.68939393939394 3.375  5.73295454545455 3.392578125  5.76704545454545 3.427734375  Z M 6.50568181818182 8.0419921875  C 6.53219696969697 7.9697265625  6.54545454545455 7.890625  6.54545454545455 7.8046875  L 6.54545454545455 2.25  L 1.45454545454545 2.25  L 1.45454545454545 7.8046875  C 1.45454545454545 7.890625  1.46780303030303 7.9697265625  1.49431818181818 8.0419921875  C 1.52083333333333 8.1142578125  1.54829545454545 8.1669921875  1.57670454545455 8.2001953125  C 1.60511363636364 8.2333984375  1.625 8.25  1.63636363636364 8.25  L 6.36363636363636 8.25  C 6.375 8.25  6.39488636363636 8.2333984375  6.42329545454545 8.2001953125  C 6.45170454545455 8.1669921875  6.47916666666667 8.1142578125  6.50568181818182 8.0419921875  Z M 3.00568181818182 0.814453125  L 2.72727272727273 1.5  L 5.27272727272727 1.5  L 5 0.814453125  C 4.97348484848485 0.779296875  4.94128787878788 0.7578125  4.90340909090909 0.75  L 3.10227272727273 0.75  C 3.06439393939394 0.7578125  3.03219696969697 0.779296875  3.00568181818182 0.814453125  Z M 7.94886363636364 1.552734375  C 7.98295454545455 1.587890625  8 1.6328125  8 1.6875  L 8 2.0625  C 8 2.1171875  7.98295454545455 2.162109375  7.94886363636364 2.197265625  C 7.91477272727273 2.232421875  7.87121212121212 2.25  7.81818181818182 2.25  L 7.27272727272727 2.25  L 7.27272727272727 7.8046875  C 7.27272727272727 8.12890625  7.18371212121212 8.4091796875  7.00568181818182 8.6455078125  C 6.82765151515152 8.8818359375  6.61363636363636 9  6.36363636363636 9  L 1.63636363636364 9  C 1.38636363636364 9  1.17234848484849 8.8857421875  0.994318181818182 8.6572265625  C 0.816287878787879 8.4287109375  0.727272727272727 8.15234375  0.727272727272727 7.828125  L 0.727272727272727 2.25  L 0.181818181818182 2.25  C 0.128787878787879 2.25  0.0852272727272727 2.232421875  0.0511363636363636 2.197265625  C 0.0170454545454545 2.162109375  0 2.1171875  0 2.0625  L 0 1.6875  C 0 1.6328125  0.0170454545454545 1.587890625  0.0511363636363636 1.552734375  C 0.0852272727272727 1.517578125  0.128787878787879 1.5  0.181818181818182 1.5  L 1.9375 1.5  L 2.33522727272727 0.521484375  C 2.39204545454546 0.376953124999999  2.49431818181818 0.253906249999999  2.64204545454545 0.15234375  C 2.78977272727273 0.0507812499999994  2.93939393939394 0  3.09090909090909 0  L 4.90909090909091 0  C 5.06060606060606 0  5.21022727272727 0.0507812499999994  5.35795454545455 0.15234375  C 5.50568181818182 0.253906249999999  5.60795454545455 0.376953124999999  5.66477272727273 0.521484375  L 6.0625 1.5  L 7.81818181818182 1.5  C 7.87121212121212 1.5  7.91477272727273 1.517578125  7.94886363636364 1.552734375  Z " fill-rule="nonzero" fill="#ffffff" stroke="none" transform="matrix(1 0 0 1 3 3 )" />
  </g>
</svg>