<?xml version="1.0" encoding="utf-8"?>
<svg version="1.1" xmlns:xlink="http://www.w3.org/1999/xlink" width="14px" height="14px" xmlns="http://www.w3.org/2000/svg">
  <g transform="matrix(1 0 0 1 -106 -830 )">
    <path d="M 113 830  C 116.92 830  120 833.08  120 837  C 120 840.92  116.92 844  113 844  C 109.08 844  106 840.92  106 837  C 106 833.08  109.08 830  113 830  Z " fill-rule="nonzero" fill="#000000" stroke="none" fill-opacity="0.498039215686275" />
    <path d="M 113 830.5  C 116.64 830.5  119.5 833.36  119.5 837  C 119.5 840.64  116.64 843.5  113 843.5  C 109.36 843.5  106.5 840.64  106.5 837  C 106.5 833.36  109.36 830.5  113 830.5  Z " stroke-width="1" stroke="#fdf5f5" fill="none" />
  </g>
</svg>