<?xml version="1.0" encoding="utf-8"?>
<svg version="1.1" xmlns:xlink="http://www.w3.org/1999/xlink" width="63px" height="63px" xmlns="http://www.w3.org/2000/svg">
  <g transform="matrix(1 0 0 1 -734 -1282 )">
    <path d="M 765.5 1283  C 782.58 1283  796 1296.42  796 1313.5  C 796 1330.58  782.58 1344  765.5 1344  C 748.42 1344  735 1330.58  735 1313.5  C 735 1296.42  748.42 1283  765.5 1283  Z " fill-rule="nonzero" fill="#008fe0" stroke="none" />
    <path d="M 765.5 1283  C 782.58 1283  796 1296.42  796 1313.5  C 796 1330.58  782.58 1344  765.5 1344  C 748.42 1344  735 1330.58  735 1313.5  C 735 1296.42  748.42 1283  765.5 1283  Z " stroke-width="2" stroke="#333333" fill="none" />
  </g>
</svg>