<?xml version="1.0" encoding="utf-8"?>
<svg version="1.1" xmlns:xlink="http://www.w3.org/1999/xlink" width="19px" height="17px" xmlns="http://www.w3.org/2000/svg">
  <g transform="matrix(1 0 0 1 -2149 -638 )">
    <path d="M 9.74386160714286 8.04622395833333  C 9.80747767857143 7.97981770833333  9.83928571428572 7.89496527777778  9.83928571428572 7.79166666666667  C 9.83928571428572 7.68836805555556  9.80747767857143 7.603515625  9.74386160714286 7.537109375  C 9.68024553571428 7.470703125  9.59895833333333 7.4375  9.5 7.4375  C 9.03348214285714 7.4375  8.63411458333333 7.61089409722222  8.30189732142857 7.95768229166667  C 7.96968005952381 8.30447048611111  7.80357142857143 8.72135416666667  7.80357142857143 9.20833333333333  C 7.80357142857143 9.31163194444444  7.83537946428571 9.396484375  7.89899553571429 9.462890625  C 7.96261160714286 9.529296875  8.04389880952381 9.5625  8.14285714285714 9.5625  C 8.24181547619048 9.5625  8.32310267857143 9.529296875  8.38671875 9.462890625  C 8.45033482142857 9.396484375  8.48214285714286 9.31163194444444  8.48214285714286 9.20833333333333  C 8.48214285714286 8.91319444444444  8.58110119047619 8.66232638888889  8.77901785714286 8.45572916666667  C 8.97693452380953 8.24913194444444  9.21726190476191 8.14583333333333  9.5 8.14583333333333  C 9.59895833333333 8.14583333333333  9.68024553571428 8.11263020833333  9.74386160714286 8.04622395833333  Z M 11.4190848214286 7.22721354166667  C 11.94921875 7.78059895833333  12.2142857142857 8.44835069444444  12.2142857142857 9.23046875  C 12.2142857142857 10.0125868055556  11.94921875 10.6803385416667  11.4190848214286 11.2337239583333  C 10.8889508928571 11.787109375  10.249255952381 12.0638020833333  9.5 12.0638020833333  C 8.75074404761905 12.0638020833333  8.11104910714286 11.787109375  7.58091517857143 11.2337239583333  C 7.05078125 10.6803385416667  6.78571428571429 10.0125868055556  6.78571428571429 9.23046875  C 6.78571428571429 8.44835069444444  7.05078125 7.78059895833333  7.58091517857143 7.22721354166667  C 8.11104910714286 6.673828125  8.75074404761905 6.39713541666667  9.5 6.39713541666667  C 10.249255952381 6.39713541666667  10.8889508928571 6.673828125  11.4190848214286 7.22721354166667  Z M 1.35714285714286 14  L 1.35714285714286 15.5833333333333  L 17.6428571428571 15.5833333333333  L 17.6428571428571 14  L 1.35714285714286 14  Z M 12.3786272321429 12.2353515625  C 13.173828125 11.4052734375  13.5714285714286 10.4036458333333  13.5714285714286 9.23046875  C 13.5714285714286 8.05729166666667  13.173828125 7.0556640625  12.3786272321429 6.2255859375  C 11.5834263392857 5.3955078125  10.6238839285714 4.98046875  9.5 4.98046875  C 8.37611607142857 4.98046875  7.41657366071429 5.3955078125  6.62137276785714 6.2255859375  C 5.826171875 7.0556640625  5.42857142857143 8.05729166666667  5.42857142857143 9.23046875  C 5.42857142857143 10.4036458333333  5.826171875 11.4052734375  6.62137276785714 12.2353515625  C 7.41657366071429 13.0654296875  8.37611607142857 13.48046875  9.5 13.48046875  C 10.6238839285714 13.48046875  11.5834263392857 13.0654296875  12.3786272321429 12.2353515625  Z M 2.71428571428571 0.708333333333333  L 2.71428571428571 2.125  L 6.78571428571429 2.125  L 6.78571428571429 0.708333333333333  L 2.71428571428571 0.708333333333333  Z M 1.35714285714286 2.83333333333333  L 1.35714285714286 4.25  L 17.6428571428571 4.25  L 17.6428571428571 2.94401041666667  L 17.6428571428571 1.41666666666667  L 8.86383928571429 1.41666666666667  L 8.18526785714286 2.83333333333333  L 1.35714285714286 2.83333333333333  Z M 18.6023995535714 0.4150390625  C 18.8674665178571 0.691731770833333  19 1.02560763888889  19 1.41666666666667  L 19 15.5833333333333  C 19 15.9743923611111  18.8674665178571 16.3082682291667  18.6023995535714 16.5849609375  C 18.3373325892857 16.8616536458333  18.0174851190476 17  17.6428571428571 17  L 1.35714285714286 17  C 0.982514880952381 17  0.662667410714286 16.8616536458333  0.397600446428571 16.5849609375  C 0.132533482142857 16.3082682291667  0 15.9743923611111  0 15.5833333333333  L 0 1.41666666666667  C 0 1.02560763888889  0.132533482142857 0.691731770833333  0.397600446428571 0.4150390625  C 0.662667410714286 0.138346354166667  0.982514880952381 0  1.35714285714286 0  L 17.6428571428571 0  C 18.0174851190476 0  18.3373325892857 0.138346354166667  18.6023995535714 0.4150390625  Z " fill-rule="nonzero" fill="#888888" stroke="none" transform="matrix(1 0 0 1 2149 638 )" />
  </g>
</svg>