<?xml version="1.0" encoding="utf-8"?>
<svg version="1.1" xmlns:xlink="http://www.w3.org/1999/xlink" width="100px" height="65px" xmlns="http://www.w3.org/2000/svg">
  <defs>
    <linearGradient gradientUnits="userSpaceOnUse" x1="50" y1="0" x2="50" y2="65" id="LinearGradient101">
      <stop id="Stop102" stop-color="#ffffff" offset="0" />
      <stop id="Stop103" stop-color="#f2f2f2" offset="0" />
      <stop id="Stop104" stop-color="#e4e4e4" offset="1" />
      <stop id="Stop105" stop-color="#ffffff" offset="1" />
    </linearGradient>
    <mask fill="white" id="clip106">
      <path d="M 100 0  L 0 0  L 0 53.7531077613658  C 0 53.7531077613658  11.8811881188119 66.2545882692122  27.970297029703 64.8969122800891  C 44.059405940594 63.5392362909659  52.7227722772277 48.0617300149614  71.5346534653465 46.9755892236628  C 90.3465346534654 45.8894484323642  100 46.9755892236628  100 46.9755892236628  L 100 0  Z " fill-rule="evenodd" />
    </mask>
  </defs>
  <g transform="matrix(1 0 0 1 -240 -638 )">
    <path d="M 100 0  L 0 0  L 0 53.7531077613658  C 0 53.7531077613658  11.8811881188119 66.2545882692122  27.970297029703 64.8969122800891  C 44.059405940594 63.5392362909659  52.7227722772277 48.0617300149614  71.5346534653465 46.9755892236628  C 90.3465346534654 45.8894484323642  100 46.9755892236628  100 46.9755892236628  L 100 0  Z " fill-rule="nonzero" fill="url(#LinearGradient101)" stroke="none" transform="matrix(1 0 0 1 240 638 )" />
    <path d="M 100 0  L 0 0  L 0 53.7531077613658  C 0 53.7531077613658  11.8811881188119 66.2545882692122  27.970297029703 64.8969122800891  C 44.059405940594 63.5392362909659  52.7227722772277 48.0617300149614  71.5346534653465 46.9755892236628  C 90.3465346534654 45.8894484323642  100 46.9755892236628  100 46.9755892236628  L 100 0  Z " stroke-width="2" stroke="#797979" fill="none" transform="matrix(1 0 0 1 240 638 )" mask="url(#clip106)" />
  </g>
</svg>