<?xml version="1.0" encoding="utf-8"?>
<svg version="1.1" xmlns:xlink="http://www.w3.org/1999/xlink" width="231px" height="42px" xmlns="http://www.w3.org/2000/svg">
  <defs>
    <mask fill="white" id="clip299">
      <path d="M 0 0  L 0 41  L 230 41  L 230 0  L 0 0  Z " fill-rule="evenodd" />
    </mask>
  </defs>
  <g transform="matrix(1 0 0 1 0 -329 )">
    <path d="M 0 0  L 0 41  L 230 41  L 230 0  L 0 0  Z " fill-rule="nonzero" fill="#ff9540" stroke="none" fill-opacity="0.462745098039216" transform="matrix(1 0 0 1 0 329 )" />
    <path d="M 0 0  L 0 41  L 230 41  L 230 0  L 0 0  Z " stroke-width="2" stroke="#797979" fill="none" transform="matrix(1 0 0 1 0 329 )" mask="url(#clip299)" />
    <path d="M 0 7.5  L 230 7.5  M 42.5 0  L 42.5 41  " stroke-width="1" stroke="#797979" fill="none" transform="matrix(1 0 0 1 0 329 )" />
  </g>
</svg>