<?xml version="1.0" encoding="utf-8"?>
<svg version="1.1" xmlns:xlink="http://www.w3.org/1999/xlink" width="63px" height="63px" xmlns="http://www.w3.org/2000/svg">
  <g transform="matrix(1 0 0 1 -156 -534 )">
    <path d="M 187.5 535  C 204.58 535  218 548.42  218 565.5  C 218 582.58  204.58 596  187.5 596  C 170.42 596  157 582.58  157 565.5  C 157 548.42  170.42 535  187.5 535  Z " fill-rule="nonzero" fill="#008fe0" stroke="none" />
    <path d="M 187.5 535  C 204.58 535  218 548.42  218 565.5  C 218 582.58  204.58 596  187.5 596  C 170.42 596  157 582.58  157 565.5  C 157 548.42  170.42 535  187.5 535  Z " stroke-width="2" stroke="#333333" fill="none" />
  </g>
</svg>