<?xml version="1.0" encoding="utf-8"?>
<svg version="1.1" xmlns:xlink="http://www.w3.org/1999/xlink" width="13px" height="14px" xmlns="http://www.w3.org/2000/svg">
  <g>
    <path d="M 2.005859375 11.6862980769231  C 2.11306423611111 11.5797275641026  2.16666666666667 11.4535256410256  2.16666666666667 11.3076923076923  C 2.16666666666667 11.161858974359  2.11306423611111 11.0356570512821  2.005859375 10.9290865384615  C 1.89865451388889 10.822516025641  1.77170138888889 10.7692307692308  1.625 10.7692307692308  C 1.47829861111111 10.7692307692308  1.35134548611111 10.822516025641  1.244140625 10.9290865384615  C 1.13693576388889 11.0356570512821  1.08333333333333 11.161858974359  1.08333333333333 11.3076923076923  C 1.08333333333333 11.4535256410256  1.13693576388889 11.5797275641026  1.244140625 11.6862980769231  C 1.35134548611111 11.7928685897436  1.47829861111111 11.8461538461538  1.625 11.8461538461538  C 1.77170138888889 11.8461538461538  1.89865451388889 11.7928685897436  2.005859375 11.6862980769231  Z M 11.7347005208333 7.14302884615385  C 11.8560112847222 6.88501602564102  11.9166666666667 6.65785256410256  11.9166666666667 6.46153846153846  C 11.9166666666667 6.17548076923077  11.806640625 5.92447916666667  11.5865885416667 5.70853365384615  C 11.3665364583333 5.49258814102564  11.1154513888889 5.38461538461538  10.8333333333333 5.38461538461538  L 7.85416666666667 5.38461538461538  C 7.85416666666667 5.05929487179487  7.98958333333333 4.61197916666667  8.26041666666667 4.04266826923077  C 8.53125 3.47335737179487  8.66666666666667 3.02323717948718  8.66666666666667 2.69230769230769  C 8.66666666666667 2.1426282051282  8.57638888888889 1.73597756410256  8.39583333333333 1.47235576923077  C 8.21527777777778 1.20873397435897  7.85416666666667 1.07692307692308  7.3125 1.07692307692308  C 7.16579861111111 1.22275641025641  7.05859375 1.46113782051282  6.99088541666667 1.79206730769231  C 6.92317708333333 2.12299679487179  6.83713107638889 2.47495993589743  6.73274739583333 2.84795673076923  C 6.62836371527778 3.22095352564102  6.46050347222222 3.52804487179487  6.22916666666667 3.76923076923077  C 6.10503472222222 3.89823717948718  5.88780381944444 4.15344551282051  5.57747395833333 4.53485576923077  C 5.55490451388889 4.56290064102564  5.49001736111111 4.64703525641026  5.3828125 4.78725961538462  C 5.27560763888889 4.92748397435897  5.18674045138889 5.04246794871795  5.1162109375 5.13221153846154  C 5.04568142361111 5.22195512820513  4.94835069444444 5.34114583333333  4.82421875 5.48978365384615  C 4.70008680555556 5.63842147435897  4.58723958333333 5.76181891025641  4.48567708333333 5.85997596153846  C 4.38411458333333 5.95813301282051  4.27549913194444 6.05769230769231  4.15983072916667 6.15865384615385  C 4.04416232638889 6.25961538461538  3.93131510416667 6.33533653846154  3.8212890625 6.38581730769231  C 3.71126302083333 6.43629807692308  3.61111111111111 6.46153846153846  3.52083333333333 6.46153846153846  L 3.25 6.46153846153846  L 3.25 11.8461538461538  L 3.52083333333333 11.8461538461538  C 3.59418402777778 11.8461538461538  3.68305121527778 11.8545673076923  3.78743489583333 11.8713942307692  C 3.89181857638889 11.8882211538462  3.98491753472222 11.9064503205128  4.06673177083333 11.9260817307692  C 4.14854600694444 11.9457131410256  4.25575086805556 11.9765625  4.38834635416667 12.0186298076923  C 4.52094184027778 12.0606971153846  4.61968315972222 12.0929487179487  4.6845703125 12.1153846153846  C 4.74945746527778 12.1378205128205  4.849609375 12.1728766025641  4.98502604166667 12.2205528846154  C 5.12044270833333 12.2682291666667  5.20225694444444 12.2976762820513  5.23046875 12.3088942307692  C 6.42100694444444 12.7183493589744  7.38585069444444 12.9230769230769  8.125 12.9230769230769  L 9.14908854166667 12.9230769230769  C 10.232421875 12.9230769230769  10.7740885416667 12.4547275641026  10.7740885416667 11.5180288461538  C 10.7740885416667 11.3721955128205  10.7599826388889 11.2151442307692  10.7317708333333 11.046875  C 10.9010416666667 10.9571314102564  11.0350477430556 10.8098958333333  11.1337890625 10.6051682692308  C 11.2325303819444 10.4004407051282  11.2819010416667 10.1943108974359  11.2819010416667 9.98677884615385  C 11.2819010416667 9.7792467948718  11.2311197916667 9.58573717948718  11.1295572916667 9.40625  C 11.4286024305556 9.12580128205128  11.578125 8.79206730769231  11.578125 8.40504807692308  C 11.578125 8.26482371794872  11.5499131944444 8.10917467948718  11.4934895833333 7.93810096153846  C 11.4370659722222 7.76702724358974  11.3665364583333 7.6338141025641  11.2819010416667 7.53846153846154  C 11.4624565972222 7.53285256410256  11.6133897569444 7.40104166666667  11.7347005208333 7.14302884615385  Z M 12.3567708333333 4.94711538461538  C 12.7855902777778 5.37339743589743  13 5.87540064102564  13 6.453125  C 13 6.95232371794872  12.8617621527778 7.40945512820513  12.5852864583333 7.82451923076923  C 12.6360677083333 8.00961538461538  12.6614583333333 8.203125  12.6614583333333 8.40504807692308  C 12.6614583333333 8.8369391025641  12.5542534722222 9.24078525641026  12.33984375 9.61658653846154  C 12.3567708333333 9.734375  12.365234375 9.85496794871795  12.365234375 9.97836538461538  C 12.365234375 10.5448717948718  12.1959635416667 11.0440705128205  11.857421875 11.4759615384615  C 11.8630642361111 12.255608974359  11.6232638888889 12.8711939102564  11.1380208333333 13.3227163461538  C 10.6527777777778 13.7742387820513  10.0123697916667 14  9.216796875 14  L 8.912109375 14  L 8.125 14  C 7.58333333333333 14  7.04871961805556 13.9368990384615  6.52115885416667 13.8106971153846  C 5.99359809027778 13.6844951923077  5.3828125 13.5008012820513  4.68880208333333 13.2596153846154  C 4.03428819444444 13.0352564102564  3.64496527777778 12.9230769230769  3.52083333333333 12.9230769230769  L 1.08333333333333 12.9230769230769  C 0.784288194444444 12.9230769230769  0.528971354166667 12.8179086538462  0.3173828125 12.6075721153846  C 0.105794270833333 12.3972355769231  0 12.1434294871795  0 11.8461538461538  L 0 6.46153846153846  C 0 6.16426282051282  0.105794270833333 5.91045673076923  0.3173828125 5.70012019230769  C 0.528971354166667 5.48978365384615  0.784288194444444 5.38461538461538  1.08333333333333 5.38461538461538  L 3.40234375 5.38461538461538  C 3.60546875 5.25  3.99197048611111 4.81530448717949  4.56184895833333 4.08052884615385  C 4.88910590277778 3.65985576923077  5.19097222222222 3.30088141025641  5.46744791666667 3.00360576923077  C 5.60286458333333 2.86338141025641  5.70301649305556 2.62359775641026  5.76790364583333 2.28425480769231  C 5.83279079861111 1.94491185897436  5.91883680555556 1.59014423076923  6.02604166666667 1.21995192307692  C 6.13324652777778 0.849759615384616  6.30815972222222 0.546875  6.55078125 0.311298076923076  C 6.77083333333333 0.103766025641026  7.02473958333333 0  7.3125 0  C 7.78645833333333 0  8.21245659722222 0.0911458333333344  8.59049479166667 0.2734375  C 8.96853298611111 0.455729166666666  9.25629340277778 0.740384615384616  9.45377604166667 1.12740384615385  C 9.65125868055556 1.51442307692308  9.75 2.03605769230769  9.75 2.69230769230769  C 9.75 3.21394230769231  9.61458333333333 3.75240384615385  9.34375 4.30769230769231  L 10.8333333333333 4.30769230769231  C 11.4201388888889 4.30769230769231  11.9279513888889 4.52083333333333  12.3567708333333 4.94711538461538  Z " fill-rule="nonzero" fill="#888888" stroke="none" />
  </g>
</svg>