<?xml version="1.0" encoding="utf-8"?>
<svg version="1.1" xmlns:xlink="http://www.w3.org/1999/xlink" width="18px" height="14px" xmlns="http://www.w3.org/2000/svg">
  <g>
    <path d="M 14.8258928571429 7.51041666666667  C 16.0848214285714 6.36805555555555  16.7142857142857 5.28645833333333  16.7142857142857 4.265625  C 16.7142857142857 3.7734375  16.6422991071429 3.33897569444444  16.4983258928571 2.96223958333333  C 16.3543526785714 2.58550347222222  16.1702008928571 2.28624131944444  15.9458705357143 2.064453125  C 15.7215401785714 1.84266493055555  15.4486607142857 1.66189236111111  15.1272321428571 1.52213541666667  C 14.8058035714286 1.38237847222222  14.4910714285714 1.28819444444444  14.1830357142857 1.23958333333333  C 13.875 1.19097222222222  13.546875 1.16666666666667  13.1986607142857 1.16666666666667  C 12.8504464285714 1.16666666666667  12.4754464285714 1.244140625  12.0736607142857 1.39908854166667  C 11.671875 1.55403645833333  11.3018973214286 1.74848090277778  10.9637276785714 1.982421875  C 10.6255580357143 2.21636284722222  10.3359375 2.43511284722222  10.0948660714286 2.638671875  C 9.85379464285714 2.84223090277778  9.65290178571429 3.02907986111111  9.4921875 3.19921875  C 9.37165178571429 3.33289930555555  9.20758928571429 3.39973958333333  9 3.39973958333333  C 8.79241071428572 3.39973958333333  8.62834821428571 3.33289930555555  8.5078125 3.19921875  C 8.34709821428571 3.02907986111111  8.14620535714286 2.84223090277778  7.90513392857143 2.638671875  C 7.6640625 2.43511284722222  7.37444196428572 2.21636284722222  7.03627232142857 1.982421875  C 6.69810267857143 1.74848090277778  6.328125 1.55403645833333  5.92633928571429 1.39908854166667  C 5.52455357142857 1.244140625  5.14955357142857 1.16666666666667  4.80133928571429 1.16666666666667  C 4.453125 1.16666666666667  4.125 1.19097222222222  3.81696428571429 1.23958333333333  C 3.50892857142857 1.28819444444444  3.19419642857143 1.38237847222222  2.87276785714286 1.52213541666667  C 2.55133928571429 1.66189236111111  2.27845982142857 1.84266493055555  2.05412946428571 2.064453125  C 1.82979910714286 2.28624131944444  1.64564732142857 2.58550347222222  1.50167410714286 2.96223958333333  C 1.35770089285714 3.33897569444444  1.28571428571429 3.7734375  1.28571428571429 4.265625  C 1.28571428571429 5.28645833333333  1.91183035714286 6.36501736111111  3.1640625 7.50130208333333  L 9 12.60546875  L 14.8258928571429 7.51041666666667  Z M 16.7243303571429 1.13020833333333  C 17.5747767857143 1.88368055555555  18 2.92881944444444  18 4.265625  C 18 5.60850694444444  17.2332589285714 6.97569444444444  15.6997767857143 8.3671875  L 9.44196428571428 13.8359375  C 9.32142857142857 13.9453125  9.17410714285714 14  9 14  C 8.82589285714286 14  8.67857142857143 13.9453125  8.55803571428571 13.8359375  L 2.29017857142857 8.34895833333333  C 2.22321428571429 8.30034722222222  2.13113839285714 8.22135416666667  2.01395089285714 8.11197916666667  C 1.89676339285714 8.00260416666667  1.7109375 7.80360243055556  1.45647321428571 7.51497395833333  C 1.20200892857143 7.22634548611111  0.974330357142857 6.93012152777778  0.7734375 6.62630208333333  C 0.572544642857143 6.32248263888889  0.393415178571429 5.95486111111111  0.236049107142857 5.5234375  C 0.0786830357142857 5.09201388888889  0 4.67274305555555  0 4.265625  C 0 2.92881944444444  0.425223214285714 1.88368055555555  1.27566964285714 1.13020833333333  C 2.12611607142857 0.376736111111111  3.30133928571429 0  4.80133928571429 0  C 5.21651785714286 0  5.64006696428571 0.0653211805555547  6.07198660714286 0.195963541666667  C 6.50390625 0.326605902777777  6.90569196428571 0.502821180555555  7.27734375 0.724609375  C 7.64899553571429 0.946397569444444  7.96875 1.15451388888889  8.23660714285714 1.34895833333333  C 8.50446428571429 1.54340277777778  8.75892857142857 1.75  9 1.96875  C 9.24107142857143 1.75  9.49553571428572 1.54340277777778  9.76339285714286 1.34895833333333  C 10.03125 1.15451388888889  10.3510044642857 0.946397569444444  10.72265625 0.724609375  C 11.0943080357143 0.502821180555555  11.49609375 0.326605902777777  11.9280133928571 0.195963541666667  C 12.3599330357143 0.0653211805555547  12.7834821428571 0  13.1986607142857 0  C 14.6986607142857 0  15.8738839285714 0.376736111111111  16.7243303571429 1.13020833333333  Z " fill-rule="nonzero" fill="#888888" stroke="none" />
  </g>
</svg>