<?xml version="1.0" encoding="utf-8"?>
<svg version="1.1" xmlns:xlink="http://www.w3.org/1999/xlink" width="26px" height="42px" xmlns="http://www.w3.org/2000/svg">
  <defs>
    <linearGradient gradientUnits="userSpaceOnUse" x1="646.5" y1="141" x2="646.5" y2="182" id="LinearGradient76">
      <stop id="Stop77" stop-color="#ffffff" offset="0" />
      <stop id="Stop78" stop-color="#f2f2f2" offset="0" />
      <stop id="Stop79" stop-color="#e4e4e4" offset="1" />
      <stop id="Stop80" stop-color="#ffffff" offset="1" />
    </linearGradient>
  </defs>
  <g transform="matrix(1 0 0 1 -634 -141 )">
    <path d="M 646.5 141.5  C 649.02 141.5  651 143.48  651 146  C 651 148.52  649.02 150.5  646.5 150.5  C 643.98 150.5  642 148.52  642 146  C 642 143.48  643.98 141.5  646.5 141.5  Z " fill-rule="nonzero" fill="url(#LinearGradient76)" stroke="none" />
    <path d="M 646.5 141.5  C 649.02 141.5  651 143.48  651 146  C 651 148.52  649.02 150.5  646.5 150.5  C 643.98 150.5  642 148.52  642 146  C 642 143.48  643.98 141.5  646.5 141.5  Z " stroke-width="1" stroke="#797979" fill="none" />
    <path d="M 634 156  L 659 156  M 646.5 151  L 646.5 169.5  M 636.5 182  L 646.5 169.5  M 646.5 169.5  L 656.5 182  " stroke-width="1" stroke="#797979" fill="none" />
  </g>
</svg>