<?xml version="1.0" encoding="utf-8"?>
<svg version="1.1" xmlns:xlink="http://www.w3.org/1999/xlink" width="18px" height="19px" xmlns="http://www.w3.org/2000/svg">
  <g>
    <path d="M 2.77734375 15.8599759615385  C 2.92578125 15.715344551282  3 15.5440705128205  3 15.3461538461538  C 3 15.1482371794872  2.92578125 14.9769631410256  2.77734375 14.8323317307692  C 2.62890625 14.6877003205128  2.453125 14.6153846153846  2.25 14.6153846153846  C 2.046875 14.6153846153846  1.87109375 14.6877003205128  1.72265625 14.8323317307692  C 1.57421875 14.9769631410256  1.5 15.1482371794872  1.5 15.3461538461538  C 1.5 15.5440705128205  1.57421875 15.715344551282  1.72265625 15.8599759615385  C 1.87109375 16.0046073717949  2.046875 16.0769230769231  2.25 16.0769230769231  C 2.453125 16.0769230769231  2.62890625 16.0046073717949  2.77734375 15.8599759615385  Z M 16.248046875 9.69411057692308  C 16.416015625 9.34395032051282  16.5 9.03565705128205  16.5 8.76923076923077  C 16.5 8.38100961538461  16.34765625 8.04036458333333  16.04296875 7.74729567307692  C 15.73828125 7.45422676282051  15.390625 7.30769230769231  15 7.30769230769231  L 10.875 7.30769230769231  C 10.875 6.8661858974359  11.0625 6.25911458333333  11.4375 5.48647836538462  C 11.8125 4.7138421474359  12 4.10296474358974  12 3.65384615384615  C 12 2.90785256410256  11.875 2.35596955128205  11.625 1.99819711538462  C 11.375 1.64042467948718  10.875 1.46153846153846  10.125 1.46153846153846  C 9.921875 1.65945512820513  9.7734375 1.98297275641026  9.6796875 2.43209134615385  C 9.5859375 2.88120993589744  9.466796875 3.35887419871795  9.322265625 3.86508413461538  C 9.177734375 4.37129407051282  8.9453125 4.7880608974359  8.625 5.11538461538462  C 8.453125 5.29046474358974  8.15234375 5.63681891025641  7.72265625 6.15444711538462  C 7.69140625 6.19250801282051  7.6015625 6.3066907051282  7.453125 6.49699519230769  C 7.3046875 6.68729967948718  7.181640625 6.84334935897436  7.083984375 6.96514423076923  C 6.986328125 7.0869391025641  6.8515625 7.24869791666667  6.6796875 7.45042067307692  C 6.5078125 7.65214342948718  6.3515625 7.81961137820513  6.2109375 7.95282451923077  C 6.0703125 8.08603766025641  5.919921875 8.22115384615384  5.759765625 8.35817307692308  C 5.599609375 8.49519230769231  5.443359375 8.59795673076923  5.291015625 8.66646634615385  C 5.138671875 8.73497596153846  5 8.76923076923077  4.875 8.76923076923077  L 4.5 8.76923076923077  L 4.5 16.0769230769231  L 4.875 16.0769230769231  C 4.9765625 16.0769230769231  5.099609375 16.0883413461538  5.244140625 16.1111778846154  C 5.388671875 16.1340144230769  5.517578125 16.1587540064103  5.630859375 16.1853966346154  C 5.744140625 16.2120392628205  5.892578125 16.25390625  6.076171875 16.3109975961538  C 6.259765625 16.3680889423077  6.396484375 16.411858974359  6.486328125 16.4423076923077  C 6.576171875 16.4727564102564  6.71484375 16.5203325320513  6.90234375 16.5850360576923  C 7.08984375 16.6497395833333  7.203125 16.689703525641  7.2421875 16.7049278846154  C 8.890625 17.2606169871795  10.2265625 17.5384615384615  11.25 17.5384615384615  L 12.66796875 17.5384615384615  C 14.16796875 17.5384615384615  14.91796875 16.9028445512821  14.91796875 15.6316105769231  C 14.91796875 15.4336939102564  14.8984375 15.2205528846154  14.859375 14.9921875  C 15.09375 14.8703926282051  15.279296875 14.6705729166667  15.416015625 14.3927283653846  C 15.552734375 14.1148838141026  15.62109375 13.8351362179487  15.62109375 13.5534855769231  C 15.62109375 13.2718349358974  15.55078125 13.0092147435897  15.41015625 12.765625  C 15.82421875 12.385016025641  16.03125 11.9320913461538  16.03125 11.4068509615385  C 16.03125 11.216546474359  15.9921875 11.0053084935897  15.9140625 10.7731370192308  C 15.8359375 10.5409655448718  15.73828125 10.3601762820513  15.62109375 10.2307692307692  C 15.87109375 10.223157051282  16.080078125 10.0442708333333  16.248046875 9.69411057692308  Z M 17.109375 6.71394230769231  C 17.703125 7.29246794871795  18 7.97375801282051  18 8.7578125  C 18 9.43529647435897  17.80859375 10.0556891025641  17.42578125 10.6189903846154  C 17.49609375 10.8701923076923  17.53125 11.1328125  17.53125 11.4068509615385  C 17.53125 11.9929887820513  17.3828125 12.5410657051282  17.0859375 13.0510817307692  C 17.109375 13.2109375  17.12109375 13.3745993589744  17.12109375 13.5420673076923  C 17.12109375 14.3108974358974  16.88671875 14.9883814102564  16.41796875 15.5745192307692  C 16.42578125 16.6326121794872  16.09375 17.4680488782051  15.421875 18.0808293269231  C 14.75 18.693609775641  13.86328125 19  12.76171875 19  L 12.33984375 19  L 11.25 19  C 10.5 19  9.759765625 18.9143629807692  9.029296875 18.7430889423077  C 8.298828125 18.5718149038462  7.453125 18.322516025641  6.4921875 17.9951923076923  C 5.5859375 17.6907051282051  5.046875 17.5384615384615  4.875 17.5384615384615  L 1.5 17.5384615384615  C 1.0859375 17.5384615384615  0.732421875 17.3957331730769  0.439453125 17.1102764423077  C 0.146484375 16.8248197115385  0 16.4803685897436  0 16.0769230769231  L 0 8.76923076923077  C 0 8.36578525641026  0.146484375 8.02133413461538  0.439453125 7.73587740384615  C 0.732421875 7.45042067307692  1.0859375 7.30769230769231  1.5 7.30769230769231  L 4.7109375 7.30769230769231  C 4.9921875 7.125  5.52734375 6.53505608974359  6.31640625 5.53786057692308  C 6.76953125 4.96694711538462  7.1875 4.47976762820513  7.5703125 4.07632211538462  C 7.7578125 3.88601762820513  7.896484375 3.5605969551282  7.986328125 3.10006009615385  C 8.076171875 2.63952323717949  8.1953125 2.15805288461538  8.34375 1.65564903846154  C 8.4921875 1.15324519230769  8.734375 0.7421875  9.0703125 0.422475961538461  C 9.375 0.140825320512822  9.7265625 0  10.125 0  C 10.78125 0  11.37109375 0.123697916666668  11.89453125 0.37109375  C 12.41796875 0.618489583333332  12.81640625 1.00480769230769  13.08984375 1.53004807692308  C 13.36328125 2.05528846153846  13.5 2.76322115384615  13.5 3.65384615384615  C 13.5 4.36177884615385  13.3125 5.09254807692308  12.9375 5.84615384615385  L 15 5.84615384615385  C 15.8125 5.84615384615385  16.515625 6.13541666666667  17.109375 6.71394230769231  Z " fill-rule="nonzero" fill="#888888" stroke="none" />
  </g>
</svg>