<?xml version="1.0" encoding="utf-8"?>
<svg version="1.1" xmlns:xlink="http://www.w3.org/1999/xlink" width="16px" height="16px" xmlns="http://www.w3.org/2000/svg">
  <g transform="matrix(1 0 0 1 -1486 -267 )">
    <path d="M 1494 269  C 1497.36 269  1500 271.64  1500 275  C 1500 278.36  1497.36 281  1494 281  C 1490.64 281  1488 278.36  1488 275  C 1488 271.64  1490.64 269  1494 269  Z " fill-rule="nonzero" fill="#ffffff" stroke="none" />
    <path d="M 1494 268.5  C 1497.64 268.5  1500.5 271.36  1500.5 275  C 1500.5 278.64  1497.64 281.5  1494 281.5  C 1490.36 281.5  1487.5 278.64  1487.5 275  C 1487.5 271.36  1490.36 268.5  1494 268.5  Z " stroke-width="3" stroke="#333333" fill="none" />
  </g>
</svg>