<?xml version="1.0" encoding="utf-8"?>
<svg version="1.1" xmlns:xlink="http://www.w3.org/1999/xlink" width="106px" height="106px" xmlns="http://www.w3.org/2000/svg">
  <g transform="matrix(1 0 0 1 -113 0 )">
    <path d="M 114 4  A 3 3 0 0 1 117 1 L 215 1  A 3 3 0 0 1 218 4 L 218 102  A 3 3 0 0 1 215 105 L 117 105  A 3 3 0 0 1 114 102 L 114 4  Z " fill-rule="nonzero" fill="#f2f2f2" stroke="none" fill-opacity="0" />
    <path d="M 113.5 4  A 3.5 3.5 0 0 1 117 0.5 L 215 0.5  A 3.5 3.5 0 0 1 218.5 4 L 218.5 102  A 3.5 3.5 0 0 1 215 105.5 L 117 105.5  A 3.5 3.5 0 0 1 113.5 102 L 113.5 4  Z " stroke-width="1" stroke-dasharray="9,4" stroke="#888888" fill="none" stroke-dashoffset="0.5" />
  </g>
</svg>