<?xml version="1.0" encoding="utf-8"?>
<svg version="1.1" xmlns:xlink="http://www.w3.org/1999/xlink" width="62px" height="62px" xmlns="http://www.w3.org/2000/svg">
  <g transform="matrix(1 0 0 1 -281 -7 )">
    <path d="M 282 11  A 3 3 0 0 1 285 8 L 339 8  A 3 3 0 0 1 342 11 L 342 65  A 3 3 0 0 1 339 68 L 285 68  A 3 3 0 0 1 282 65 L 282 11  Z " fill-rule="nonzero" fill="#f2f2f2" stroke="none" fill-opacity="0" />
    <path d="M 281.5 11  A 3.5 3.5 0 0 1 285 7.5 L 339 7.5  A 3.5 3.5 0 0 1 342.5 11 L 342.5 65  A 3.5 3.5 0 0 1 339 68.5 L 285 68.5  A 3.5 3.5 0 0 1 281.5 65 L 281.5 11  Z " stroke-width="1" stroke-dasharray="9,4" stroke="#888888" fill="none" stroke-dashoffset="0.5" />
  </g>
</svg>