<!-- Generator: Adobe Illustrator 19.0.0, SVG Export Plug-In  -->
<svg version="1.1"
	 xmlns="http://www.w3.org/2000/svg" xmlns:xlink="http://www.w3.org/1999/xlink" xmlns:a="http://ns.adobe.com/AdobeSVGViewerExtensions/3.0/"
	 x="0px" y="0px" width="30.1px" height="25.1px" viewBox="0 0 30.1 25.1" style="enable-background:new 0 0 30.1 25.1;"
	 xml:space="preserve">
<style type="text/css">
	.st0{fill:none;stroke:#000000;stroke-linecap:round;stroke-miterlimit:10;}
</style>
<defs>
</defs>
<path id="XMLID_18_" class="st0" d="M28.1,21h-1.4h0c-1.2,0-1.9,0.8-2.2,2.2l-0.2,1.3c0,0.1-0.1,0.1-0.1,0.1
	c-0.6-0.3-3.1-1.9-4.9-2.8c-1-0.5-2-0.8-3.1-0.8h-14c-0.9,0-1.6-0.7-1.6-1.6V2.1c0-0.9,0.7-1.6,1.6-1.6h26c0.9,0,1.6,0.7,1.6,1.6
	v17.3C29.6,20.3,28.9,21,28.1,21z"/>
<circle id="XMLID_17_" class="st0" cx="15.5" cy="10.8" r="1.3"/>
<circle id="XMLID_16_" class="st0" cx="8.4" cy="10.8" r="1.3"/>
<circle id="XMLID_15_" class="st0" cx="22.6" cy="10.8" r="1.3"/>
</svg>
