<?xml version="1.0" encoding="utf-8"?>
<svg version="1.1" xmlns:xlink="http://www.w3.org/1999/xlink" width="100px" height="34px" xmlns="http://www.w3.org/2000/svg">
  <defs>
    <linearGradient gradientUnits="userSpaceOnUse" x1="50" y1="0" x2="50" y2="34" id="LinearGradient5540">
      <stop id="Stop5541" stop-color="#ffffff" offset="0" />
      <stop id="Stop5542" stop-color="#f2f2f2" offset="0" />
      <stop id="Stop5543" stop-color="#e4e4e4" offset="1" />
      <stop id="Stop5544" stop-color="#ffffff" offset="1" />
    </linearGradient>
    <mask fill="white" id="clip5545">
      <path d="M 0 34  L 0 0  L 100 0  L 100 34  L 69 34  L 0 34  Z " fill-rule="evenodd" />
    </mask>
  </defs>
  <g transform="matrix(1 0 0 1 -135 -1450 )">
    <path d="M 0 34  L 0 0  L 100 0  L 100 34  L 69 34  L 0 34  Z " fill-rule="nonzero" fill="url(#LinearGradient5540)" stroke="none" transform="matrix(1 0 0 1 135 1450 )" />
    <path d="M 0 34  L 0 0  L 100 0  L 100 34  L 69 34  L 0 34  Z " stroke-width="2" stroke="#797979" fill="none" transform="matrix(1 0 0 1 135 1450 )" mask="url(#clip5545)" />
  </g>
</svg>