<?xml version="1.0" standalone="no"?><!DOCTYPE svg PUBLIC "-//W3C//DTD SVG 1.1//EN" "http://www.w3.org/Graphics/SVG/1.1/DTD/svg11.dtd"><svg class="icon" width="32px" height="32.00px" viewBox="0 0 1024 1024" version="1.1" xmlns="http://www.w3.org/2000/svg"><path fill="#000000" d="M928.05 687.77V847.7c0 13.31-4.57 24.75-13.91 34-9.34 9.36-20.66 13.93-33.94 13.93H145.6c-13.28 0-24.7-4.58-33.94-13.93-9.34-9.36-13.91-20.69-13.91-34V687.77c0-13.31 4.57-24.75 13.91-34.01 9.34-9.36 20.66-13.93 33.94-13.93h232.07l67.35 68c19.3 18.72 41.83 27.98 67.88 27.98 26.05 0 48.57-9.36 67.88-27.98l67.88-68h231.65c13.29 0 24.7 4.57 33.94 13.93 9.03 9.47 13.8 20.8 13.8 34.01zM765.94 403.35c5.71 13.62 3.33 25.37-7.05 35.05L535.33 662.39c-6.02 6.34-13.39 9.46-22.42 9.46s-16.5-3.12-22.42-9.46L266.83 438.4c-10.28-9.67-12.66-21.32-7.06-35.05 5.71-13 15.47-19.45 29.48-19.45h127.76V159.91c0-8.63 3.12-16.22 9.45-22.46 6.33-6.24 13.7-9.46 22.42-9.46h127.76c8.62 0 16.19 3.12 22.41 9.46 6.23 6.34 9.45 13.83 9.45 22.46V383.9h127.86c14.01 0.01 23.87 6.46 29.58 19.45z m-39.03 418.98c6.33-6.34 9.44-13.83 9.44-22.46s-3.11-16.22-9.44-22.46c-6.33-6.24-13.8-9.47-22.42-9.47-8.62 0-16.19 3.12-22.42 9.47-6.22 6.34-9.44 13.83-9.44 22.46s3.11 16.22 9.44 22.46c6.33 6.24 13.7 9.46 22.42 9.46 8.62 0.11 16.2-3.12 22.42-9.46z m127.77 0c6.33-6.34 9.44-13.83 9.44-22.46s-3.11-16.22-9.44-22.46c-6.33-6.24-13.8-9.47-22.42-9.47-8.61 0-16.19 3.12-22.42 9.47-6.23 6.34-9.44 13.83-9.44 22.46s3.11 16.22 9.44 22.46c6.33 6.24 13.7 9.46 22.42 9.46 8.61 0.11 16.08-3.12 22.42-9.46z m0 0" /></svg>