<?xml version="1.0" encoding="utf-8"?>
<svg version="1.1" xmlns:xlink="http://www.w3.org/1999/xlink" width="24px" height="19px" xmlns="http://www.w3.org/2000/svg">
  <g>
    <path d="M 19.7678571428571 10.1927083333333  C 21.4464285714286 8.64236111111111  22.2857142857143 7.17447916666667  22.2857142857143 5.7890625  C 22.2857142857143 5.12109375  22.1897321428571 4.53146701388889  21.9977678571429 4.02018229166667  C 21.8058035714286 3.50889756944444  21.5602678571429 3.10275607638889  21.2611607142857 2.8017578125  C 20.9620535714286 2.50075954861111  20.5982142857143 2.25542534722222  20.1696428571429 2.06575520833333  C 19.7410714285714 1.87608506944444  19.3214285714286 1.74826388888889  18.9107142857143 1.68229166666667  C 18.5 1.61631944444444  18.0625 1.58333333333333  17.5982142857143 1.58333333333333  C 17.1339285714286 1.58333333333333  16.6339285714286 1.6884765625  16.0982142857143 1.89876302083333  C 15.5625 2.10904947916667  15.0691964285714 2.37293836805555  14.6183035714286 2.6904296875  C 14.1674107142857 3.00792100694444  13.78125 3.30479600694444  13.4598214285714 3.5810546875  C 13.1383928571429 3.85731336805555  12.8705357142857 4.11089409722222  12.65625 4.341796875  C 12.4955357142857 4.52322048611111  12.2767857142857 4.61393229166667  12 4.61393229166667  C 11.7232142857143 4.61393229166667  11.5044642857143 4.52322048611111  11.34375 4.341796875  C 11.1294642857143 4.11089409722222  10.8616071428571 3.85731336805555  10.5401785714286 3.5810546875  C 10.21875 3.30479600694444  9.83258928571429 3.00792100694444  9.38169642857143 2.6904296875  C 8.93080357142857 2.37293836805555  8.4375 2.10904947916667  7.90178571428572 1.89876302083333  C 7.36607142857143 1.6884765625  6.86607142857143 1.58333333333333  6.40178571428572 1.58333333333333  C 5.9375 1.58333333333333  5.5 1.61631944444444  5.08928571428571 1.68229166666667  C 4.67857142857143 1.74826388888889  4.25892857142857 1.87608506944444  3.83035714285714 2.06575520833333  C 3.40178571428571 2.25542534722222  3.03794642857143 2.50075954861111  2.73883928571429 2.8017578125  C 2.43973214285714 3.10275607638889  2.19419642857143 3.50889756944444  2.00223214285714 4.02018229166667  C 1.81026785714286 4.53146701388889  1.71428571428571 5.12109375  1.71428571428571 5.7890625  C 1.71428571428571 7.17447916666667  2.54910714285714 8.63823784722222  4.21875 10.1803385416667  L 12 17.107421875  L 19.7678571428571 10.1927083333333  Z M 22.2991071428571 1.53385416666667  C 23.4330357142857 2.55642361111111  24 3.97482638888889  24 5.7890625  C 24 7.61154513888889  22.9776785714286 9.46701388888889  20.9330357142857 11.35546875  L 12.5892857142857 18.77734375  C 12.4285714285714 18.92578125  12.2321428571429 19  12 19  C 11.7678571428571 19  11.5714285714286 18.92578125  11.4107142857143 18.77734375  L 3.05357142857143 11.3307291666667  C 2.96428571428571 11.2647569444444  2.84151785714286 11.1575520833333  2.68526785714286 11.0091145833333  C 2.52901785714286 10.8606770833333  2.28125 10.5906032986111  1.94196428571429 10.1988932291667  C 1.60267857142857 9.80718315972222  1.29910714285714 9.40516493055555  1.03125 8.99283854166667  C 0.763392857142857 8.58051215277778  0.524553571428572 8.08159722222222  0.314732142857143 7.49609375  C 0.104910714285714 6.91059027777778  0 6.34157986111111  0 5.7890625  C 0 3.97482638888889  0.566964285714286 2.55642361111111  1.70089285714286 1.53385416666667  C 2.83482142857143 0.511284722222222  4.40178571428571 0  6.40178571428572 0  C 6.95535714285714 0  7.52008928571428 0.0886501736111099  8.09598214285714 0.265950520833334  C 8.671875 0.443250868055554  9.20758928571428 0.68240017361111  9.703125 0.9833984375  C 10.1986607142857 1.28439670138889  10.625 1.56684027777778  10.9821428571429 1.83072916666667  C 11.3392857142857 2.09461805555555  11.6785714285714 2.375  12 2.671875  C 12.3214285714286 2.375  12.6607142857143 2.09461805555555  13.0178571428571 1.83072916666667  C 13.375 1.56684027777778  13.8013392857143 1.28439670138889  14.296875 0.9833984375  C 14.7924107142857 0.68240017361111  15.328125 0.443250868055554  15.9040178571429 0.265950520833334  C 16.4799107142857 0.0886501736111099  17.0446428571429 0  17.5982142857143 0  C 19.5982142857143 0  21.1651785714286 0.511284722222222  22.2991071428571 1.53385416666667  Z " fill-rule="nonzero" fill="#ffffff" stroke="none" />
  </g>
</svg>