<?xml version="1.0" encoding="utf-8"?>
<svg version="1.1" xmlns:xlink="http://www.w3.org/1999/xlink" width="24px" height="25px" xmlns="http://www.w3.org/2000/svg">
  <g>
    <path d="M 3.703125 20.8683894230769  C 3.90104166666667 20.6780849358974  4 20.4527243589744  4 20.1923076923077  C 4 19.931891025641  3.90104166666667 19.706530448718  3.703125 19.5162259615385  C 3.50520833333333 19.325921474359  3.27083333333333 19.2307692307692  3 19.2307692307692  C 2.72916666666667 19.2307692307692  2.49479166666667 19.325921474359  2.296875 19.5162259615385  C 2.09895833333333 19.706530448718  2 19.931891025641  2 20.1923076923077  C 2 20.4527243589744  2.09895833333333 20.6780849358974  2.296875 20.8683894230769  C 2.49479166666667 21.0586939102564  2.72916666666667 21.1538461538462  3 21.1538461538462  C 3.27083333333333 21.1538461538462  3.50520833333333 21.0586939102564  3.703125 20.8683894230769  Z M 21.6640625 12.7554086538462  C 21.8880208333333 12.294671474359  22 11.8890224358974  22 11.5384615384615  C 22 11.0276442307692  21.796875 10.5794270833333  21.390625 10.1938100961538  C 20.984375 9.80819310897436  20.5208333333333 9.61538461538461  20 9.61538461538461  L 14.5 9.61538461538461  C 14.5 9.03445512820513  14.75 8.23567708333333  15.25 7.21905048076923  C 15.75 6.20242387820513  16 5.39863782051282  16 4.80769230769231  C 16 3.82612179487179  15.8333333333333 3.09995993589743  15.5 2.62920673076923  C 15.1666666666667 2.15845352564102  14.5 1.92307692307692  13.5 1.92307692307692  C 13.2291666666667 2.18349358974359  13.03125 2.60917467948718  12.90625 3.20012019230769  C 12.78125 3.7910657051282  12.6223958333333 4.41957131410256  12.4296875 5.08563701923077  C 12.2369791666667 5.75170272435897  11.9270833333333 6.30008012820513  11.5 6.73076923076923  C 11.2708333333333 6.96113782051282  10.8697916666667 7.41686698717949  10.296875 8.09795673076923  C 10.2552083333333 8.14803685897436  10.1354166666667 8.29827724358974  9.9375 8.54867788461539  C 9.73958333333333 8.79907852564102  9.57552083333333 9.00440705128205  9.4453125 9.16466346153846  C 9.31510416666667 9.32491987179487  9.13541666666667 9.53776041666667  8.90625 9.80318509615385  C 8.67708333333333 10.068609775641  8.46875 10.2889623397436  8.28125 10.4642427884615  C 8.09375 10.6395232371795  7.89322916666667 10.8173076923077  7.6796875 10.9975961538462  C 7.46614583333333 11.1778846153846  7.2578125 11.3131009615385  7.0546875 11.4032451923077  C 6.8515625 11.4933894230769  6.66666666666667 11.5384615384615  6.5 11.5384615384615  L 6 11.5384615384615  L 6 21.1538461538462  L 6.5 21.1538461538462  C 6.63541666666667 21.1538461538462  6.79947916666667 21.1688701923077  6.9921875 21.1989182692308  C 7.18489583333333 21.2289663461538  7.35677083333333 21.2615184294872  7.5078125 21.2965745192308  C 7.65885416666667 21.3316306089744  7.85677083333333 21.38671875  8.1015625 21.4618389423077  C 8.34635416666667 21.5369591346154  8.52864583333333 21.5945512820513  8.6484375 21.6346153846154  C 8.76822916666667 21.6746794871795  8.953125 21.7372796474359  9.203125 21.8224158653846  C 9.453125 21.9075520833333  9.60416666666667 21.9601362179487  9.65625 21.9801682692308  C 11.8541666666667 22.7113381410256  13.6354166666667 23.0769230769231  15 23.0769230769231  L 16.890625 23.0769230769231  C 18.890625 23.0769230769231  19.890625 22.2405849358974  19.890625 20.5679086538462  C 19.890625 20.3074919871795  19.8645833333333 20.0270432692308  19.8125 19.7265625  C 20.125 19.5663060897436  20.3723958333333 19.3033854166667  20.5546875 18.9378004807692  C 20.7369791666667 18.5722155448718  20.828125 18.2041266025641  20.828125 17.8335336538462  C 20.828125 17.4629407051282  20.734375 17.1173878205128  20.546875 16.796875  C 21.0989583333333 16.2960737179487  21.375 15.7001201923077  21.375 15.0090144230769  C 21.375 14.7586137820513  21.3229166666667 14.4806690705128  21.21875 14.1751802884615  C 21.1145833333333 13.8696915064103  20.984375 13.6318108974359  20.828125 13.4615384615385  C 21.1614583333333 13.4515224358974  21.4401041666667 13.2161458333333  21.6640625 12.7554086538462  Z M 22.8125 8.83413461538461  C 23.6041666666667 9.59535256410256  24 10.4917868589744  24 11.5234375  C 24 12.4148637820513  23.7447916666667 13.2311698717949  23.234375 13.9723557692308  C 23.328125 14.3028846153846  23.375 14.6484375  23.375 15.0090144230769  C 23.375 15.7802483974359  23.1770833333333 16.5014022435897  22.78125 17.1724759615385  C 22.8125 17.3828125  22.828125 17.598157051282  22.828125 17.8185096153846  C 22.828125 18.8301282051282  22.515625 19.7215544871795  21.890625 20.4927884615385  C 21.9010416666667 21.885016025641  21.4583333333333 22.9842748397436  20.5625 23.7905649038462  C 19.6666666666667 24.5968549679487  18.484375 25  17.015625 25  L 16.453125 25  L 15 25  C 14 25  13.0130208333333 24.8873197115385  12.0390625 24.6619591346154  C 11.0651041666667 24.4365985576923  9.9375 24.1085737179487  8.65625 23.6778846153846  C 7.44791666666667 23.2772435897436  6.72916666666667 23.0769230769231  6.5 23.0769230769231  L 2 23.0769230769231  C 1.44791666666667 23.0769230769231  0.9765625 22.8891225961538  0.5859375 22.5135216346154  C 0.1953125 22.1379206730769  0 21.6846955128205  0 21.1538461538462  L 0 11.5384615384615  C 0 11.0076121794872  0.1953125 10.5543870192308  0.5859375 10.1787860576923  C 0.9765625 9.80318509615385  1.44791666666667 9.61538461538461  2 9.61538461538461  L 6.28125 9.61538461538461  C 6.65625 9.375  7.36979166666667 8.59875801282051  8.421875 7.28665865384615  C 9.02604166666667 6.53545673076923  9.58333333333333 5.89443108974359  10.09375 5.36358173076923  C 10.34375 5.11318108974359  10.5286458333333 4.68499599358974  10.6484375 4.07902644230769  C 10.7682291666667 3.47305689102564  10.9270833333333 2.83954326923077  11.125 2.17848557692308  C 11.3229166666667 1.51742788461539  11.6458333333333 0.9765625  12.09375 0.555889423076922  C 12.5 0.185296474358976  12.96875 0  13.5 0  C 14.375 0  15.1614583333333 0.162760416666669  15.859375 0.48828125  C 16.5572916666667 0.813802083333331  17.0885416666667 1.32211538461539  17.453125 2.01322115384615  C 17.8177083333333 2.70432692307692  18 3.63581730769231  18 4.80769230769231  C 18 5.73918269230769  17.75 6.70072115384615  17.25 7.69230769230769  L 20 7.69230769230769  C 21.0833333333333 7.69230769230769  22.0208333333333 8.07291666666667  22.8125 8.83413461538461  Z " fill-rule="nonzero" fill="#ffffff" stroke="none" />
  </g>
</svg>