<?xml version="1.0" encoding="utf-8"?>
<svg version="1.1" xmlns:xlink="http://www.w3.org/1999/xlink" width="24px" height="22px" xmlns="http://www.w3.org/2000/svg">
  <g>
    <path d="M 8.06919642857143 7.87044270833333  C 8.40401785714286 8.228515625  8.57142857142857 8.66059027777778  8.57142857142857 9.16666666666667  C 8.57142857142857 9.67274305555555  8.40401785714286 10.1048177083333  8.06919642857143 10.462890625  C 7.734375 10.8209635416667  7.33035714285714 11  6.85714285714286 11  C 6.38392857142857 11  5.97991071428572 10.8209635416667  5.64508928571429 10.462890625  C 5.31026785714286 10.1048177083333  5.14285714285714 9.67274305555555  5.14285714285714 9.16666666666667  C 5.14285714285714 8.66059027777778  5.31026785714286 8.228515625  5.64508928571429 7.87044270833333  C 5.97991071428572 7.51236979166667  6.38392857142857 7.33333333333333  6.85714285714286 7.33333333333333  C 7.33035714285714 7.33333333333333  7.734375 7.51236979166667  8.06919642857143 7.87044270833333  Z M 13.2120535714286 7.87044270833333  C 13.546875 8.228515625  13.7142857142857 8.66059027777778  13.7142857142857 9.16666666666667  C 13.7142857142857 9.67274305555555  13.546875 10.1048177083333  13.2120535714286 10.462890625  C 12.8772321428571 10.8209635416667  12.4732142857143 11  12 11  C 11.5267857142857 11  11.1227678571429 10.8209635416667  10.7879464285714 10.462890625  C 10.453125 10.1048177083333  10.2857142857143 9.67274305555555  10.2857142857143 9.16666666666667  C 10.2857142857143 8.66059027777778  10.453125 8.228515625  10.7879464285714 7.87044270833333  C 11.1227678571429 7.51236979166667  11.5267857142857 7.33333333333333  12 7.33333333333333  C 12.4732142857143 7.33333333333333  12.8772321428571 7.51236979166667  13.2120535714286 7.87044270833333  Z M 18.3549107142857 7.87044270833333  C 18.6897321428571 8.228515625  18.8571428571429 8.66059027777778  18.8571428571429 9.16666666666667  C 18.8571428571429 9.67274305555555  18.6897321428571 10.1048177083333  18.3549107142857 10.462890625  C 18.0200892857143 10.8209635416667  17.6160714285714 11  17.1428571428571 11  C 16.6696428571429 11  16.265625 10.8209635416667  15.9308035714286 10.462890625  C 15.5959821428571 10.1048177083333  15.4285714285714 9.67274305555555  15.4285714285714 9.16666666666667  C 15.4285714285714 8.66059027777778  15.5959821428571 8.228515625  15.9308035714286 7.87044270833333  C 16.265625 7.51236979166667  16.6696428571429 7.33333333333333  17.1428571428571 7.33333333333333  C 17.6160714285714 7.33333333333333  18.0200892857143 7.51236979166667  18.3549107142857 7.87044270833333  Z M 17.109375 2.82877604166667  C 15.5245535714286 2.16514756944444  13.8214285714286 1.83333333333333  12 1.83333333333333  C 10.1785714285714 1.83333333333333  8.47544642857143 2.16514756944444  6.890625 2.82877604166667  C 5.30580357142857 3.49240451388889  4.046875 4.38758680555555  3.11383928571429 5.51432291666667  C 2.18080357142857 6.64105902777778  1.71428571428571 7.85850694444444  1.71428571428571 9.16666666666667  C 1.71428571428571 10.2361111111111  2.03348214285714 11.2554253472222  2.671875 12.224609375  C 3.31026785714286 13.1937934027778  4.20982142857143 14.0316840277778  5.37053571428571 14.73828125  L 6.53571428571428 15.4544270833333  L 6.17410714285714 16.8294270833333  C 5.95982142857143 17.6983506944444  5.64732142857143 18.51953125  5.23660714285714 19.29296875  C 6.59375 18.69140625  7.82142857142857 17.875  8.91964285714286 16.84375  L 9.49553571428572 16.2994791666667  L 10.2589285714286 16.3854166666667  C 10.875 16.4618055555556  11.4553571428571 16.5  12 16.5  C 13.8214285714286 16.5  15.5245535714286 16.1681857638889  17.109375 15.5045572916667  C 18.6941964285714 14.8409288194444  19.953125 13.9457465277778  20.8861607142857 12.8190104166667  C 21.8191964285714 11.6922743055556  22.2857142857143 10.4748263888889  22.2857142857143 9.16666666666667  C 22.2857142857143 7.85850694444444  21.8191964285714 6.64105902777778  20.8861607142857 5.51432291666667  C 19.953125 4.38758680555555  18.6941964285714 3.49240451388889  17.109375 2.82877604166667  Z M 23.0491071428571 5.607421875  C 23.6830357142857 6.73893229166667  24 7.92534722222222  24 9.16666666666667  C 24 10.828125  23.4642857142857 12.3630642361111  22.3928571428571 13.771484375  C 21.3214285714286 15.1799045138889  19.8660714285714 16.2923177083333  18.0267857142857 17.1087239583333  C 16.1875 17.9251302083333  14.1785714285714 18.3333333333333  12 18.3333333333333  C 11.375 18.3333333333333  10.7276785714286 18.2951388888889  10.0580357142857 18.21875  C 8.29017857142857 19.8897569444444  6.23660714285714 21.0451388888889  3.89732142857143 21.6848958333333  C 3.45982142857143 21.8185763888889  2.95089285714286 21.9236111111111  2.37053571428571 22  L 2.30357142857143 22  C 2.16964285714286 22  2.04910714285714 21.9498697916667  1.94196428571429 21.849609375  C 1.83482142857143 21.7493489583333  1.76339285714286 21.6180555555556  1.72767857142857 21.4557291666667  L 1.72767857142857 21.44140625  C 1.70089285714286 21.4032118055556  1.69866071428571 21.3459201388889  1.72098214285714 21.26953125  C 1.74330357142857 21.1931423611111  1.75223214285714 21.1453993055556  1.74776785714286 21.1263020833333  C 1.74330357142857 21.1072048611111  1.76339285714286 21.0618489583333  1.80803571428571 20.990234375  L 1.88839285714286 20.861328125  C 1.88839285714286 20.861328125  1.91964285714286 20.8207465277778  1.98214285714286 20.7395833333333  C 2.04464285714286 20.6584201388889  2.08035714285714 20.6154513888889  2.08928571428571 20.6106770833333  C 2.15178571428571 20.5342881944444  2.29017857142857 20.3695746527778  2.50446428571429 20.1165364583333  C 2.71875 19.8634982638889  2.87276785714286 19.6820746527778  2.96651785714286 19.572265625  C 3.06026785714286 19.4624565972222  3.19866071428571 19.2738715277778  3.38169642857143 19.0065104166667  C 3.56473214285714 18.7391493055556  3.70982142857143 18.4956597222222  3.81696428571429 18.2760416666667  C 3.92410714285714 18.0564236111111  4.04464285714286 17.7747395833333  4.17857142857143 17.4309895833333  C 4.3125 17.0872395833333  4.42857142857143 16.7243923611111  4.52678571428571 16.3424479166667  C 3.125 15.4926215277778  2.02008928571429 14.4422743055556  1.21205357142857 13.19140625  C 0.404017857142857 11.9405381944444  0 10.5989583333333  0 9.16666666666667  C 0 7.92534722222222  0.316964285714286 6.73893229166667  0.950892857142857 5.607421875  C 1.58482142857143 4.47591145833333  2.4375 3.49956597222222  3.50892857142857 2.67838541666667  C 4.58035714285714 1.85720486111111  5.85714285714286 1.20551215277777  7.33928571428572 0.723307291666666  C 8.82142857142857 0.241102430555554  10.375 0  12 0  C 13.625 0  15.1785714285714 0.241102430555554  16.6607142857143 0.723307291666666  C 18.1428571428571 1.20551215277777  19.4196428571429 1.85720486111111  20.4910714285714 2.67838541666667  C 21.5625 3.49956597222222  22.4151785714286 4.47591145833333  23.0491071428571 5.607421875  Z " fill-rule="nonzero" fill="#ffffff" stroke="none" />
  </g>
</svg>