<?xml version="1.0" encoding="utf-8"?>
<svg version="1.1" xmlns:xlink="http://www.w3.org/1999/xlink" width="50px" height="50px" xmlns="http://www.w3.org/2000/svg">
  <g transform="matrix(1 0 0 1 -16 -75 )">
    <path d="M 16 75  L 66 75  L 66 125  L 16 125  L 16 75  " fill-rule="nonzero" fill="#cccccc" stroke="none" />
    <path d="M 20 79  L 62 79  L 62 121  L 20 121  L 20 79  " fill-rule="nonzero" fill="#ffffff" stroke="none" />
    <path d="M 45.75 90  C 43.65 90  42 88.35  42 86.25  C 42 84.15  43.65 82.5  45.75 82.5  C 47.85 82.5  49.5 84.15  49.5 86.25  C 49.5 88.35  47.85 90  45.75 90  " fill-rule="nonzero" fill="#cccccc" stroke="none" />
    <path d="M 22 120  L 22 98.55  L 31.75 88.8  L 45.4 96.6  L 53.2 94.65  L 61 96.6  L 61 120  L 22 120  " fill-rule="nonzero" fill="#169bd5" stroke="none" />
  </g>
</svg>