<?xml version="1.0" encoding="utf-8"?>
<svg version="1.1" xmlns:xlink="http://www.w3.org/1999/xlink" width="54px" height="34px" xmlns="http://www.w3.org/2000/svg">
  <defs>
    <linearGradient gradientUnits="userSpaceOnUse" x1="27" y1="0" x2="27" y2="34" id="LinearGradient1136">
      <stop id="Stop1137" stop-color="#ffffff" offset="0" />
      <stop id="Stop1138" stop-color="#f2f2f2" offset="0" />
      <stop id="Stop1139" stop-color="#e4e4e4" offset="1" />
      <stop id="Stop1140" stop-color="#ffffff" offset="1" />
    </linearGradient>
    <mask fill="white" id="clip1141">
      <path d="M 27 34  L 0 17  L 20.9793713163065 3.79076620825163  L 27 0  L 54 17  L 36.2563850687623 28.1719056974462  L 27 34  Z " fill-rule="evenodd" />
    </mask>
  </defs>
  <g transform="matrix(1 0 0 1 -1100 -537 )">
    <path d="M 27 34  L 0 17  L 20.9793713163065 3.79076620825163  L 27 0  L 54 17  L 36.2563850687623 28.1719056974462  L 27 34  Z " fill-rule="nonzero" fill="url(#LinearGradient1136)" stroke="none" transform="matrix(1 0 0 1 1100 537 )" />
    <path d="M 27 34  L 0 17  L 20.9793713163065 3.79076620825163  L 27 0  L 54 17  L 36.2563850687623 28.1719056974462  L 27 34  Z " stroke-width="2" stroke="#797979" fill="none" transform="matrix(1 0 0 1 1100 537 )" mask="url(#clip1141)" />
  </g>
</svg>