<?xml version="1.0" encoding="utf-8"?>
<svg version="1.1" xmlns:xlink="http://www.w3.org/1999/xlink" width="10px" height="21px" xmlns="http://www.w3.org/2000/svg">
  <g transform="matrix(1 0 0 1 -10 -31 )">
    <path d="M 9.82817869415808 1.26252505010018  C 9.94272623138603 1.40280561122245  10 1.56412825651302  10 1.74649298597194  C 10 1.92885771543087  9.94272623138603 2.09018036072143  9.82817869415808 2.2304609218437  L 3.07560137457045 10.5  L 9.82817869415808 18.7695390781563  C 9.94272623138603 18.9098196392786  10 19.0711422845691  10 19.2535070140281  C 10 19.435871743487  9.94272623138603 19.5971943887776  9.82817869415808 19.7374749498998  L 8.96907216494846 20.7895791583167  C 8.85452462772051 20.9298597194389  8.72279495990836 21  8.57388316151203 21  C 8.4249713631157 21  8.29324169530354 20.9298597194389  8.17869415807559 20.7895791583167  L 0.171821305841924 10.9839679358718  C 0.0572737686139746 10.8436873747495  0 10.6823647294589  0 10.5  C 0 10.3176352705411  0.0572737686139746 10.1563126252505  0.171821305841924 10.0160320641282  L 8.17869415807559 0.210420841683344  C 8.29324169530354 0.0701402805611337  8.4249713631157 0  8.57388316151203 0  C 8.72279495990836 0  8.85452462772051 0.0701402805611337  8.96907216494846 0.210420841683344  L 9.82817869415808 1.26252505010018  Z " fill-rule="nonzero" fill="#169bd5" stroke="none" transform="matrix(1 0 0 1 10 31 )" />
  </g>
</svg>