<?xml version="1.0" encoding="utf-8"?>
<svg version="1.1" xmlns:xlink="http://www.w3.org/1999/xlink" width="18px" height="18px" xmlns="http://www.w3.org/2000/svg">
  <g transform="matrix(1 0 0 1 -414 -287 )">
    <path d="M 423 287  C 428.04 287  432 290.96  432 296  C 432 301.04  428.04 305  423 305  C 417.96 305  414 301.04  414 296  C 414 290.96  417.96 287  423 287  Z " fill-rule="nonzero" fill="#ffffff" stroke="none" />
    <path d="M 423 287.5  C 427.76 287.5  431.5 291.24  431.5 296  C 431.5 300.76  427.76 304.5  423 304.5  C 418.24 304.5  414.5 300.76  414.5 296  C 414.5 291.24  418.24 287.5  423 287.5  Z " stroke-width="1" stroke="#797979" fill="none" />
  </g>
</svg>