<?xml version="1.0" encoding="utf-8"?>
<svg version="1.1" xmlns:xlink="http://www.w3.org/1999/xlink" width="159px" height="81px" xmlns="http://www.w3.org/2000/svg">
  <defs>
    <linearGradient gradientUnits="userSpaceOnUse" x1="79" y1="0" x2="79" y2="80" id="LinearGradient931">
      <stop id="Stop932" stop-color="#ffffff" offset="0" />
      <stop id="Stop933" stop-color="#f2f2f2" offset="0" />
      <stop id="Stop934" stop-color="#e4e4e4" offset="1" />
      <stop id="Stop935" stop-color="#ffffff" offset="1" />
    </linearGradient>
    <mask fill="white" id="clip936">
      <path d="M 158 0  L 0 0  L 0 80  L 158 80  L 158 0  Z " fill-rule="evenodd" />
    </mask>
  </defs>
  <g transform="matrix(1 0 0 1 -79 -729 )">
    <path d="M 158 0  L 0 0  L 0 80  L 158 80  L 158 0  Z " fill-rule="nonzero" fill="url(#LinearGradient931)" stroke="none" transform="matrix(1 0 0 1 79 729 )" />
    <path d="M 158 0  L 0 0  L 0 80  L 158 80  L 158 0  Z " stroke-width="2" stroke="#797979" fill="none" transform="matrix(1 0 0 1 79 729 )" mask="url(#clip936)" />
    <path d="M 15.5 0  L 15.5 80  M 141.5 0  L 141.5 80  " stroke-width="1" stroke="#797979" fill="none" transform="matrix(1 0 0 1 79 729 )" />
  </g>
</svg>