<?xml version="1.0" encoding="utf-8"?>
<svg version="1.1" xmlns:xlink="http://www.w3.org/1999/xlink" width="10px" height="7px" xmlns="http://www.w3.org/2000/svg">
  <g transform="matrix(1 0 0 1 -53 -16 )">
    <path d="M 9.72926829268295 0.0833739837397616  L 9.9019512195122 0.284552845528462  C 9.99716632642267 0.395670689447305  9.99716632642267 0.575792725187019  9.9019512195122 0.686910569105862  L 5.15926829268292 6.22032520325195  C 5.11351993728235 6.27375769517137  5.05144128002416 6.30378075589078  4.98670731707315 6.30378075589078  C 4.9219733541222 6.30378075589078  4.85989469686396 6.27375769517137  4.81414634146341 6.22032520325195  L 0.0714634146341666 0.686910569105862  C -0.0237516922763064 0.575792725187019  -0.0237516922763064 0.395670689447305  0.0714634146341666 0.284552845528462  L 0.243902439024396 0.0833739837397616  C 0.339146305240433 -0.027710307655525  0.493536621588845 -0.027710307655525  0.588780487804883 0.0833739837397616  L 4.98658536585364 5.21414634146345  L 9.38463414634148 0.0833739837397616  C 9.47987801255752 -0.027710307655525  9.6342683289059 -0.027710307655525  9.72951219512194 0.0833739837397616  Z " fill-rule="nonzero" fill="#909399" stroke="none" fill-opacity="0.647058823529412" transform="matrix(1 0 0 1 53 16 )" />
  </g>
</svg>