<?xml version="1.0" encoding="utf-8"?>
<svg version="1.1" xmlns:xlink="http://www.w3.org/1999/xlink" width="163px" height="196px" xmlns="http://www.w3.org/2000/svg">
  <g>
    <path d="M 1 4  A 3 3 0 0 1 4 1 L 159 1  A 3 3 0 0 1 162 4 L 162 192  A 3 3 0 0 1 159 195 L 4 195  A 3 3 0 0 1 1 192 L 1 4  Z " fill-rule="nonzero" fill="#ffffff" stroke="none" />
    <path d="M 0.5 4  A 3.5 3.5 0 0 1 4 0.5 L 159 0.5  A 3.5 3.5 0 0 1 162.5 4 L 162.5 192  A 3.5 3.5 0 0 1 159 195.5 L 4 195.5  A 3.5 3.5 0 0 1 0.5 192 L 0.5 4  Z " stroke-width="1" stroke="#000000" fill="none" stroke-opacity="0.2" />
  </g>
</svg>