<?xml version="1.0" encoding="utf-8"?>
<svg version="1.1" xmlns:xlink="http://www.w3.org/1999/xlink" width="48px" height="48px" xmlns="http://www.w3.org/2000/svg">
  <g transform="matrix(1 0 0 1 -164 -214 )">
    <path d="M 47.8182096774193 24.0323709677419  C 47.8182096774193 10.8974032258064  37.1699516129032 0.249145161290326  24.0349838709677 0.249145161290326  C 10.9000161290322 0.249145161290326  0.251758064516107 10.8974032258064  0.251758064516107 24.0323709677419  C 0.251758064516107 37.1673387096774  10.9000161290322 47.8155967741936  24.0349838709677 47.8155967741936  C 37.1699516129032 47.8155967741936  47.8182096774193 37.1673387096774  47.8182096774193 24.0323709677419  Z M 37.871564516129 16.5776612903226  C 37.871564516129 16.5776612903226  20.4715161290322 32.9015322580645  20.4661935483871 32.9061774193548  C 20.0757580645161 33.2867419354839  19.4455161290322 33.2787580645161  19.0649516129032 32.8883225806451  L 10.1792903225806 24.1196129032258  C 9.79872580645162 23.7291774193548  9.80670967741939 23.098935483871  10.1971451612902 22.7183709677419  C 10.5875806451613 22.3378064516129  11.2178225806452 22.3457903225806  11.5983870967742 22.7362258064516  L 19.7805 30.7941290322581  L 36.4875483870968 15.1586129032258  C 36.8779838709678 14.7780483870968  37.5082258064517 14.7860322580645  37.8887903225806 15.1764677419355  C 38.2699838709678 15.5669032258065  38.2620483870968 16.1971451612903  37.8716129032258 16.5777096774194  Z " fill-rule="nonzero" fill="#67c23a" stroke="none" transform="matrix(1 0 0 1 164 214 )" />
  </g>
</svg>