<?xml version="1.0" encoding="utf-8"?>
<svg version="1.1" xmlns:xlink="http://www.w3.org/1999/xlink" width="70px" height="10px" preserveAspectRatio="xMinYMid meet" viewBox="454 1821  70 8" xmlns="http://www.w3.org/2000/svg">
  <defs>
    <mask fill="white" id="clip495">
      <path d="M 502.5 1710  L 535.5 1710  L 535.5 1737  L 502.5 1737  Z M 454 1589  L 535.5 1589  L 535.5 1828  L 454 1828  Z " fill-rule="evenodd" />
    </mask>
  </defs>
  <path d="M 454 1825.5  L 514 1825.5  A 5 5 0 0 0 519.5 1820.5 L 519.5 1603  A 5 5 0 0 0 514 1598.5 L 493 1598.5  A 3 3 0 0 0 490 1595.5 A 3 3 0 0 0 487 1598.5 L 482 1598.5  " stroke-width="1" stroke="#333333" fill="none" mask="url(#clip495)" />
  <path d="M 483 1592.2  L 477 1598.5  L 483 1604.8  L 483 1592.2  Z " fill-rule="nonzero" fill="#333333" stroke="none" mask="url(#clip495)" />
</svg>